<svg width="690" height="690" viewBox="0 0 690 690" fill="none" xmlns="http://www.w3.org/2000/svg">
<path d="M179.745 121.586C180.525 101.274 186.974 92.1597 191.19 86.7602C195.406 81.3606 218.565 62.7186 227.858 64.8969C233.793 66.2881 237.546 74.7936 239.047 84.0499C240.548 93.3062 250.805 127.58 250.805 127.58C278.574 126.829 324.75 124.153 359.129 126.329C378.892 127.58 398.949 138.148 430.342 164.832C455.456 186.179 497.988 261.745 516.114 296.86C520.079 306.591 527.748 328.432 526.71 337.947C525.413 349.841 512.87 359.572 502.707 365.41C492.543 371.249 466.594 369.303 459.458 369.303C453.749 369.303 405.324 358.491 381.825 353.084L386.15 428.771C391.196 509.863 401.244 671.961 401.071 671.615C373.824 673.777 322.574 664.046 295.111 654.315C267.647 644.584 246.672 632.474 220.506 607.822C199.573 588.101 186.411 557.077 182.446 544.03C181.628 542.213 179.795 529.352 179.014 492.437C178.037 446.295 185.117 314.458 187.559 277.593C190 240.727 204.892 191.899 204.404 191.655C181.699 171.635 178.769 146.977 179.745 121.586Z" fill="#009D91"/>
<path d="M475.375 106.237H264.957C266.348 73.8501 288.68 9.07617 366.886 9.07617C445.093 9.07617 471.798 73.8501 475.375 106.237Z" fill="#FF902A"/>
<path d="M412.275 245.985C412.275 264.32 447.877 303.319 444.64 327.362C444.64 327.362 359.162 326.438 334.596 326.438C291.695 326.438 256.918 288.886 256.918 245.985C256.918 203.085 291.696 168.307 334.597 168.307C377.497 168.307 412.275 203.085 412.275 245.985Z" fill="white"/>
<path d="M476.487 173.125C513.703 173.125 543.873 203.295 543.873 240.511C543.873 277.727 513.703 307.896 476.487 307.896C467.224 307.896 458.397 306.026 450.363 302.644V331.438L431.157 331.621L430.821 290.062C420.44 280.489 413.072 267.696 410.308 253.268C409.358 252.873 408.002 252.6 406.098 252.6H390.547C387.616 280.415 364.088 302.09 335.496 302.09C304.922 302.09 280.137 277.305 280.137 246.73C280.137 216.156 304.922 191.371 335.496 191.371C361.548 191.371 383.395 209.366 389.289 233.604L409.478 233.356C413.05 199.504 441.688 173.125 476.487 173.125ZM476.487 194.125C450.869 194.125 430.102 214.893 430.102 240.511C430.102 266.129 450.869 286.896 476.487 286.896C502.105 286.896 522.873 266.129 522.873 240.511C522.873 214.893 502.105 194.125 476.487 194.125ZM335.496 212.371C316.52 212.371 301.137 227.754 301.137 246.73C301.137 265.707 316.52 281.09 335.496 281.09C354.472 281.09 369.855 265.707 369.855 246.73C369.855 227.754 354.472 212.371 335.496 212.371Z" fill="#2C2F65"/>
<circle cx="335.91" cy="246.732" r="13.4766" fill="#2C2F65"/>
<circle cx="475.865" cy="241.547" r="23.2246" fill="#2C2F65"/>
</svg>
